<svg xmlns="http://www.w3.org/2000/svg" width="31.878" height="36.432" viewBox="914.385 1003.455 31.878 36.432"><path d="M914.385 1036.472a3.416 3.416 0 0 0 3.415 3.415h25.048a3.416 3.416 0 0 0 3.415-3.415v-19.355h-31.878v19.355Zm22.77-13.947c0-.47.384-.854.854-.854h2.846c.47 0 .854.385.854.854v2.846c0 .47-.384.854-.854.854h-2.846a.856.856 0 0 1-.854-.854v-2.846Zm0 9.108c0-.47.384-.854.854-.854h2.846c.47 0 .854.385.854.854v2.846c0 .47-.384.854-.854.854h-2.846a.856.856 0 0 1-.854-.854v-2.846Zm-9.108-9.108c0-.47.384-.854.854-.854h2.846c.47 0 .854.385.854.854v2.846c0 .47-.384.854-.854.854h-2.846a.856.856 0 0 1-.854-.854v-2.846Zm0 9.108c0-.47.384-.854.854-.854h2.846c.47 0 .854.385.854.854v2.846c0 .47-.384.854-.854.854h-2.846a.856.856 0 0 1-.854-.854v-2.846Zm-9.108-9.108c0-.47.384-.854.854-.854h2.846c.47 0 .854.385.854.854v2.846c0 .47-.384.854-.854.854h-2.846a.856.856 0 0 1-.854-.854v-2.846Zm0 9.108c0-.47.384-.854.854-.854h2.846c.47 0 .854.385.854.854v2.846c0 .47-.384.854-.854.854h-2.846a.856.856 0 0 1-.854-.854v-2.846Zm23.909-23.624h-3.416v-3.415c0-.627-.512-1.139-1.139-1.139h-2.277c-.626 0-1.138.512-1.138 1.139v3.415h-9.108v-3.415c0-.627-.512-1.139-1.139-1.139h-2.277c-.626 0-1.138.512-1.138 1.139v3.415H917.8a3.416 3.416 0 0 0-3.415 3.416v3.415h31.878v-3.415a3.416 3.416 0 0 0-3.415-3.416Z" fill="#a1a3ef" fill-rule="evenodd" data-name="Icon awesome-calendar-alt"/></svg>