<svg xmlns="http://www.w3.org/2000/svg" width="25.786" height="25.786" viewBox="883.531 2740.124 25.786 25.786"><g data-name="Icon feather-percent"><g data-name="Path 78000"><path d="m907.705 2741.736-22.563 22.563" fill="#fff" fill-rule="evenodd"/><path d="m907.705 2741.736-22.563 22.563" stroke-linejoin="round" stroke-linecap="round" stroke-width="3" stroke="#9997df" fill="transparent"/></g><g data-name="Path 78001"><path d="M891.589 2744.153a4.03 4.03 0 1 1-8.058 0 4.03 4.03 0 0 1 8.058 0Z" fill="#fff" fill-rule="evenodd"/><path d="M891.589 2744.153a4.03 4.03 0 1 1-8.058 0 4.03 4.03 0 0 1 8.058 0Z" stroke-linejoin="round" stroke-linecap="round" stroke-width="3" stroke="#9997df" fill="transparent"/></g><g data-name="Path 78002"><path d="M909.317 2761.881a4.03 4.03 0 1 1-8.058 0 4.03 4.03 0 0 1 8.058 0Z" fill="#fff" fill-rule="evenodd"/><path d="M909.317 2761.881a4.03 4.03 0 1 1-8.058 0 4.03 4.03 0 0 1 8.058 0Z" stroke-linejoin="round" stroke-linecap="round" stroke-width="3" stroke="#9997df" fill="transparent"/></g></g></svg>